<svg id="visual" viewBox="0 0 900 600" width="900" height="600" xmlns="http://www.w3.org/2000/svg" xmlns:xlink="http://www.w3.org/1999/xlink" version="1.1"><rect x="0" y="0" width="900" height="600" fill="#001220"></rect><defs><linearGradient id="grad1_0" x1="33.3%" y1="0%" x2="100%" y2="100%"><stop offset="20%" stop-color="#001220" stop-opacity="1"></stop><stop offset="80%" stop-color="#001220" stop-opacity="1"></stop></linearGradient></defs><defs><linearGradient id="grad2_0" x1="0%" y1="0%" x2="66.7%" y2="100%"><stop offset="20%" stop-color="#001220" stop-opacity="1"></stop><stop offset="80%" stop-color="#001220" stop-opacity="1"></stop></linearGradient></defs><g transform="translate(900, 0)"><path d="M0 486.7C-53.6 455.2 -107.2 423.7 -167.6 404.7C-228 385.6 -295.3 379 -344.2 344.2C-393.1 309.3 -423.7 246.2 -444.4 184.1C-465.1 122 -475.9 61 -486.7 0L0 0Z" fill="#FBAE3C"></path></g><g transform="translate(0, 600)"><path d="M0 -486.7C70.4 -486.5 140.9 -486.2 186.3 -449.7C231.6 -413.1 252 -340.3 292.7 -292.7C333.5 -245.2 394.8 -222.9 430.5 -178.3C466.3 -133.8 476.5 -66.9 486.7 0L0 0Z" fill="#FBAE3C"></path></g></svg>